<svg width="28" height="28" viewBox="0 0 28 28" fill="none" xmlns="http://www.w3.org/2000/svg">
<path d="M16.893 5.83328C17.0465 5.83239 17.1987 5.86182 17.3409 5.91988C17.483 5.97794 17.6123 6.06349 17.7213 6.17162C17.8307 6.28007 17.9175 6.40911 17.9767 6.55127C18.0359 6.69344 18.0664 6.84593 18.0664 6.99995C18.0664 7.15396 18.0359 7.30645 17.9767 7.44862C17.9175 7.59079 17.8307 7.71982 17.7213 7.82828L11.538 13.9999L17.7213 20.1716C17.8301 20.2804 17.9164 20.4095 17.9752 20.5517C18.0341 20.6938 18.0644 20.8461 18.0644 20.9999C18.0644 21.1538 18.0341 21.3061 17.9752 21.4482C17.9164 21.5904 17.8301 21.7195 17.7213 21.8283C17.6125 21.9371 17.4834 22.0233 17.3413 22.0822C17.1991 22.1411 17.0468 22.1714 16.893 22.1714C16.7391 22.1714 16.5868 22.1411 16.4447 22.0822C16.3026 22.0233 16.1734 21.9371 16.0646 21.8283L9.06464 14.8283C8.95529 14.7198 8.8685 14.5908 8.80927 14.4486C8.75004 14.3065 8.71955 14.154 8.71955 13.9999C8.71955 13.8459 8.75004 13.6934 8.80927 13.5513C8.8685 13.4091 8.95529 13.2801 9.06464 13.1716L16.0646 6.17162C16.1737 6.06349 16.3029 5.97794 16.4451 5.91988C16.5872 5.86182 16.7394 5.83239 16.893 5.83328Z" fill="#333333"/>
</svg>
