<svg width="28" height="28" viewBox="0 0 28 28" fill="none" xmlns="http://www.w3.org/2000/svg">
<path d="M11.107 22.1667C10.9535 22.1676 10.8013 22.1382 10.6591 22.0801C10.517 22.0221 10.3877 21.9365 10.2787 21.8284C10.1693 21.7199 10.0825 21.5909 10.0233 21.4487C9.96408 21.3066 9.93359 21.1541 9.93359 21.0001C9.93359 20.846 9.96408 20.6935 10.0233 20.5514C10.0825 20.4092 10.1693 20.2802 10.2787 20.1717L16.462 14.0001L10.2787 7.82839C10.1699 7.71961 10.0836 7.59047 10.0248 7.44834C9.96588 7.30622 9.93558 7.15389 9.93558 7.00005C9.93558 6.84622 9.96588 6.69389 10.0248 6.55176C10.0836 6.40964 10.1699 6.2805 10.2787 6.17172C10.3875 6.06294 10.5166 5.97665 10.6587 5.91778C10.8009 5.85891 10.9532 5.82861 11.107 5.82861C11.2609 5.82861 11.4132 5.85891 11.5553 5.91778C11.6974 5.97665 11.8266 6.06294 11.9354 6.17172L18.9354 13.1717C19.0447 13.2802 19.1315 13.4092 19.1907 13.5514C19.25 13.6936 19.2805 13.846 19.2805 14.0001C19.2805 14.1541 19.25 14.3066 19.1907 14.4487C19.1315 14.5909 19.0447 14.7199 18.9354 14.8284L11.9354 21.8284C11.8263 21.9365 11.6971 22.0221 11.5549 22.0801C11.4128 22.1382 11.2606 22.1676 11.107 22.1667Z" fill="#333333"/>
</svg>
