<?xml version="1.0" encoding="UTF-8"?>
<svg id="Layer_2" data-name="Layer 2" xmlns="http://www.w3.org/2000/svg" xmlns:xlink="http://www.w3.org/1999/xlink" viewBox="0 0 228.49 88.29">
  <defs>
    <style>
      .cls-1 {
        fill: url(#linear-gradient-2);
      }

      .cls-2 {
        fill: url(#linear-gradient-6);
      }

      .cls-3 {
        fill: url(#linear-gradient-5);
      }

      .cls-4 {
        fill: url(#linear-gradient-3);
      }

      .cls-5 {
        fill: url(#linear-gradient);
      }

      .cls-6 {
        fill: url(#linear-gradient-4);
      }
    </style>
    <linearGradient id="linear-gradient" x1="149.4" y1="88.29" x2="149.4" y2="59.5" gradientUnits="userSpaceOnUse">
      <stop offset="0" stop-color="#552f73"/>
      <stop offset="1" stop-color="#6c3d8a"/>
    </linearGradient>
    <linearGradient id="linear-gradient-2" x1="128.46" y1="84.02" x2="128.46" y2="20.71" gradientUnits="userSpaceOnUse">
      <stop offset="0" stop-color="#542d71"/>
      <stop offset="1" stop-color="#7b479c"/>
    </linearGradient>
    <linearGradient id="linear-gradient-3" x1="45.57" y1="84.02" x2="45.57" y2="23.55" gradientUnits="userSpaceOnUse">
      <stop offset="0" stop-color="#522b6d"/>
      <stop offset="1" stop-color="#7c499d"/>
    </linearGradient>
    <linearGradient id="linear-gradient-4" x1="82.9" y1="84.02" x2="82.9" y2="0" gradientUnits="userSpaceOnUse">
      <stop offset="0" stop-color="#532c6f"/>
      <stop offset="1" stop-color="#7c489b"/>
    </linearGradient>
    <linearGradient id="linear-gradient-5" x1="197.14" y1="85.07" x2="197.14" y2="0" gradientUnits="userSpaceOnUse">
      <stop offset="0" stop-color="#542d71"/>
      <stop offset="1" stop-color="#7b469b"/>
    </linearGradient>
    <linearGradient id="linear-gradient-6" x1="8.23" y1="0" x2="8.23" y2="84.02" gradientUnits="userSpaceOnUse">
      <stop offset="0" stop-color="#998cc3"/>
      <stop offset="1" stop-color="#7a469c"/>
    </linearGradient>
  </defs>
  <g id="Layer_1-2" data-name="Layer 1">
    <g>
      <path class="cls-5" d="M163.79,76.65l-11.64,11.64-17.15-17.15,11.64-11.64,17.15,17.15Z"/>
      <path class="cls-1" d="M128.46,20.71c-17.48,0-31.66,14.17-31.66,31.65s14.18,31.66,31.66,31.66,31.66-14.17,31.66-31.66-14.18-31.65-31.66-31.65Zm0,46.89c-8.36,0-15.13-6.82-15.13-15.24s6.77-15.23,15.13-15.23,15.13,6.82,15.13,15.23-6.77,15.24-15.13,15.24Z"/>
      <g>
        <path class="cls-4" d="M68.68,23.55H22.45v15.35h24.61l-24.61,31.53v13.59h46.23v-15.35h-24.61l24.61-31.53v-13.59Z"/>
        <path class="cls-6" d="M74.66,0V84.02h16.47V0h-16.47Z"/>
        <path class="cls-3" d="M219.32,31.61c-6.12-6.11-13.51-9.17-22.18-9.17-5.47,0-10.43,2.19-14.88,6.56V0h-16.47V53.73c0,8.67,3.06,16.06,9.17,22.17,6.12,6.12,13.51,9.17,22.18,9.17s16.06-3.05,22.18-9.17c6.11-6.11,9.17-13.5,9.17-22.17s-3.06-16.01-9.17-22.12Zm-11.66,32.69c-2.91,2.91-6.42,4.37-10.52,4.37s-7.61-1.46-10.52-4.37c-2.91-2.91-4.36-6.41-4.36-10.51s1.45-7.61,4.36-10.52c2.91-2.91,6.42-4.37,10.52-4.37s7.61,1.46,10.52,4.37c2.91,2.91,4.36,6.41,4.36,10.52s-1.45,7.6-4.36,10.51Z"/>
      </g>
      <path class="cls-2" d="M16.46,16.46H0S0,0,0,0H16.46s0,16.46,0,16.46Zm0,67.56H0V23.55H16.46v60.47Z"/>
    </g>
  </g>
</svg>